<?xml version="1.0" encoding="utf-8"?>
<!-- Generator: Adobe Illustrator 24.2.1, SVG Export Plug-In . SVG Version: 6.00 Build 0)  -->
<svg version="1.1" xmlns="http://www.w3.org/2000/svg" xmlns:xlink="http://www.w3.org/1999/xlink" x="0px" y="0px"
	 viewBox="0 0 595.28 100.87" style="enable-background:new 0 0 595.28 100.87;" xml:space="preserve">
<style type="text/css">
	.st0{fill:#54565A;}
	.st1{fill:#FF9E18;}
	.st2{fill:none;stroke:#B72025;stroke-width:4;stroke-miterlimit:10;}
	.st3{fill:none;stroke:#607D8B;stroke-width:4;stroke-miterlimit:10;}
	.st4{fill:none;stroke:#0377BE;stroke-width:4;stroke-miterlimit:10;}
	.st5{fill:none;stroke:#ED6D23;stroke-width:4;stroke-miterlimit:10;}
</style>
<g id="Store_Color">
</g>
<g id="Industria_4.0_Color">
	<g>
		<g>
			<path class="st0" d="M283.67,36.49c0,3.06-2.43,5.52-5.52,5.52c-3.06,0-5.52-2.46-5.52-5.52c0-3.06,2.46-5.48,5.55-5.48
				C281.25,31.01,283.67,33.44,283.67,36.49z M273.97,36.49c0,2.43,1.79,4.36,4.22,4.36c2.35,0.04,4.15-1.93,4.15-4.32
				c0-2.43-1.79-4.39-4.22-4.39C275.77,32.14,273.97,34.1,273.97,36.49z M277.28,39.34h-1.16v-5.48c0.46-0.07,1.12-0.18,1.97-0.18
				c0.98,0,1.44,0.18,1.83,0.46c0.32,0.21,0.56,0.63,0.56,1.16c0,0.63-0.53,1.09-1.16,1.3v0.07c0.56,0.18,0.81,0.6,0.98,1.34
				c0.18,0.81,0.28,1.16,0.42,1.34h-1.26c-0.18-0.21-0.28-0.67-0.42-1.34c-0.11-0.56-0.46-0.84-1.16-0.84h-0.6V39.34z M277.31,36.25
				h0.6c0.7,0,1.27-0.21,1.27-0.77c0-0.53-0.32-0.84-1.16-0.84c-0.32,0-0.56,0.03-0.7,0.07V36.25z"/>
		</g>
		<path class="st0" d="M226.76,53.1c-0.02-0.17-0.03-0.4-0.03-0.69c0-1.94,1.19-3.45,3.56-4.52c2-0.9,4.35-1.34,7.05-1.34h6.65
			c0-1.18-0.33-2.08-0.99-2.7c-1.01-0.96-2.89-1.44-5.63-1.44l-10.64-0.03v-4.04h10.63c3.12,0,5.61,0.66,7.47,1.98
			c2.04,1.45,3.06,3.52,3.06,6.2V47v0.92v0.43v0.56v0.72v0.95v1.28v1.68v2.2v2.89h-10.55c-3.18,0-5.64-0.45-7.4-1.34
			c-1.58-0.81-2.58-1.94-2.99-3.41C226.85,53.54,226.78,53.28,226.76,53.1 M237.41,50.46h-0.44h-0.61c-1.47,0-2.66,0.11-3.58,0.32
			c-1.4,0.32-2.1,0.87-2.1,1.65c0,0.89,0.76,1.51,2.27,1.88c0.96,0.24,2.17,0.36,3.62,0.36h0.46h0.43h6.61v-4.21H237.41z"/>
		<path class="st0" d="M270.54,58.65h-12.49c-3.18,0-5.46-0.93-6.84-2.79c-1.23-1.64-1.84-4.13-1.84-7.46
			c0-3.22,1.01-5.75,3.02-7.59c1.8-1.64,4.01-2.47,6.64-2.47h7.56v-6.77h3.94V58.65z M266.6,54.7V42.41l-7.69-0.07
			c-2.04,0-3.52,0.59-4.44,1.77c-0.77,0.99-1.15,2.41-1.15,4.27c0,1.97,0.34,3.47,1.02,4.5c0.79,1.21,2.03,1.81,3.71,1.81H266.6z"/>
		<path class="st0" d="M224.26,42.41h-10.55c-2.02,0-3.68,0.72-5,2.17c-1.12,1.23-1.68,2.5-1.68,3.81c0,1.49,0.51,2.85,1.54,4.08
			c1.25,1.49,2.96,2.24,5.13,2.24h10.55v3.94h-10.55c-3.05,0-5.59-1.13-7.63-3.39c-1.86-2.06-2.79-4.33-2.79-6.8
			c0-2.56,0.92-4.84,2.76-6.84c2.04-2.19,4.6-3.29,7.69-3.29h10.52V42.41z"/>
		<polygon class="st0" points="110.63,38.26 109.31,38.27 109.31,38.26 105.37,38.27 97.93,45.65 90.59,38.25 89.27,38.26 
			89.27,38.25 85.48,38.26 95.64,48.49 85.48,58.65 86.8,58.64 86.8,58.65 90.39,58.63 97.93,51.13 105.35,58.49 106.66,58.49 
			106.67,58.49 110.46,58.48 100.5,48.49 		"/>
		<path class="st0" d="M134.39,48.59c0,3.22-1.01,5.74-3.02,7.58c-1.8,1.64-4.01,2.46-6.64,2.46h-8.35v6.51h-3.94V38.25h13.87
			c2.54,0,4.53,0.94,5.95,2.81C133.68,42.93,134.39,45.44,134.39,48.59 M130.45,48.68c0-2.15-0.22-3.68-0.66-4.6
			c-0.59-1.25-1.71-1.87-3.35-1.87h-10.06v12.43h3.16h5.33c2.04,0,3.52-0.58,4.44-1.74C130.06,51.92,130.45,50.52,130.45,48.68"/>
		<path class="st0" d="M139.36,50.46c0.31,1.38,1.15,2.45,2.53,3.22c1.23,0.68,2.66,1.02,4.31,1.02h10.55v3.94h-10.55
			c-3.16,0-5.71-0.98-7.68-2.94c-1.96-1.96-2.94-4.37-2.94-7.22c0-2.78,1.05-5.17,3.16-7.17c2.1-1.99,4.59-2.99,7.46-2.99
			c3.2,0,5.83,1.19,7.89,3.57c1.77,2.05,2.66,4.27,2.66,6.66c0,0.66-0.11,1.29-0.33,1.9H139.36z M139.45,46.52h12.72
			c-0.37-0.92-0.74-1.6-1.12-2.04c-1.18-1.38-2.81-2.07-4.87-2.07c-2.08,0-3.82,0.68-5.23,2.04C140.51,44.88,140,45.57,139.45,46.52
			"/>
		<path class="st0" d="M167.2,39.32c2.02-0.37,4.79-0.66,8.32-0.85c1.64-0.09,3.12-0.13,4.44-0.13v3.94h-1.28h-1.94
			c-2.04,0-4.14,0.08-6.3,0.23c-2.16,0.15-3.89,0.41-5.21,0.79c-1.67,0.48-2.5,1.11-2.5,1.9v13.46h-3.94V38.33h3.94v3.29
			C162.73,40.65,164.22,39.89,167.2,39.32"/>
		<polygon class="st0" points="194.42,38.33 194.42,32.22 194.42,31.56 190.54,31.56 190.54,32.22 190.54,38.33 181.92,38.33 
			181.92,38.99 181.92,41.62 181.92,42.28 190.54,42.28 190.54,57.99 190.54,58.65 194.48,58.65 194.48,57.99 194.48,57.99 
			194.45,50.13 194.42,42.28 203.09,42.28 203.09,41.62 203.09,38.99 203.09,38.33 		"/>
		<path class="st1" d="M60.99,41.81c13.9-14.7,18.52-16.48,18.52-16.48s-0.86-3.38-4.44-3.53c-0.2-0.01-0.4,0.03-0.59,0.1
			c-1.83,0.7-12.02,4.79-21.05,12.89c-9.03-8.1-19.22-12.19-21.05-12.89c-0.19-0.07-0.39-0.11-0.59-0.1
			c-3.58,0.15-4.44,3.53-4.44,3.53s4.61,1.78,18.52,16.48c-14.16,13.41-18.76,20.3-18.76,20.3l0.03,7.49
			c0.47,3.38,3.07,4.51,4.65,4.73c0,0,0.01,0,0.01,0l1.85,0c6.71-13.72,19.76-27.58,19.79-27.6c0.03,0.03,13.08,13.89,19.79,27.6
			l1.85,0c0,0,0.01,0,0.01,0c1.58-0.22,4.19-1.35,4.65-4.73l0.03-7.49C79.76,62.12,75.15,55.22,60.99,41.81z"/>
	</g>
	<line class="st3" x1="314.42" y1="21.8" x2="314.42" y2="74.34"/>
	<g>
		<path class="st0" d="M343.64,32.52h5v28.56h-5V32.52z"/>
		<path class="st0" d="M353.12,40.4h4.32v3.04l0.08,0.08c0.69-1.15,1.6-2.05,2.72-2.7c1.12-0.65,2.36-0.98,3.72-0.98
			c2.27,0,4.05,0.59,5.36,1.76c1.31,1.17,1.96,2.93,1.96,5.28v14.2h-4.56v-13c-0.05-1.63-0.4-2.81-1.04-3.54s-1.64-1.1-3-1.1
			c-0.77,0-1.47,0.14-2.08,0.42c-0.61,0.28-1.13,0.67-1.56,1.16c-0.43,0.49-0.76,1.07-1,1.74c-0.24,0.67-0.36,1.37-0.36,2.12v12.2
			h-4.56V40.4z"/>
		<path class="st0" d="M394.56,61.08h-4.32v-2.8h-0.08c-0.61,1.2-1.51,2.06-2.68,2.58c-1.17,0.52-2.41,0.78-3.72,0.78
			c-1.63,0-3.05-0.29-4.26-0.86c-1.21-0.57-2.22-1.35-3.02-2.34s-1.4-2.15-1.8-3.5s-0.6-2.79-0.6-4.34c0-1.87,0.25-3.48,0.76-4.84
			c0.51-1.36,1.18-2.48,2.02-3.36s1.8-1.53,2.88-1.94c1.08-0.41,2.18-0.62,3.3-0.62c0.64,0,1.29,0.06,1.96,0.18
			c0.67,0.12,1.31,0.31,1.92,0.58c0.61,0.27,1.18,0.61,1.7,1.02c0.52,0.41,0.95,0.9,1.3,1.46H390V32.52h4.56V61.08z M378.64,50.96
			c0,0.88,0.11,1.75,0.34,2.6s0.57,1.61,1.04,2.28c0.47,0.67,1.06,1.2,1.78,1.6c0.72,0.4,1.57,0.6,2.56,0.6
			c1.01,0,1.89-0.21,2.62-0.64s1.33-0.99,1.8-1.68c0.47-0.69,0.81-1.47,1.04-2.34c0.23-0.87,0.34-1.75,0.34-2.66
			c0-2.29-0.51-4.08-1.54-5.36c-1.03-1.28-2.42-1.92-4.18-1.92c-1.07,0-1.97,0.22-2.7,0.66c-0.73,0.44-1.33,1.01-1.8,1.72
			c-0.47,0.71-0.8,1.51-1,2.4C378.74,49.11,378.64,50.03,378.64,50.96z"/>
		<path class="st0" d="M416.68,61.08h-4.48V58.2h-0.08c-0.56,1.04-1.39,1.87-2.5,2.5s-2.23,0.94-3.38,0.94
			c-2.72,0-4.69-0.67-5.9-2.02s-1.82-3.38-1.82-6.1V40.4h4.56v12.68c0,1.81,0.35,3.09,1.04,3.84c0.69,0.75,1.67,1.12,2.92,1.12
			c0.96,0,1.76-0.15,2.4-0.44c0.64-0.29,1.16-0.69,1.56-1.18c0.4-0.49,0.69-1.09,0.86-1.78c0.17-0.69,0.26-1.44,0.26-2.24v-12h4.56
			V61.08z"/>
		<path class="st0" d="M423.92,54.44c0.13,1.33,0.64,2.27,1.52,2.8s1.93,0.8,3.16,0.8c0.43,0,0.91-0.03,1.46-0.1
			c0.55-0.07,1.06-0.19,1.54-0.38c0.48-0.19,0.87-0.46,1.18-0.82c0.31-0.36,0.45-0.83,0.42-1.42c-0.03-0.59-0.24-1.07-0.64-1.44
			c-0.4-0.37-0.91-0.67-1.54-0.9c-0.63-0.23-1.34-0.42-2.14-0.58s-1.61-0.33-2.44-0.52c-0.85-0.19-1.67-0.41-2.46-0.68
			c-0.79-0.27-1.49-0.63-2.12-1.08c-0.63-0.45-1.13-1.03-1.5-1.74c-0.37-0.71-0.56-1.58-0.56-2.62c0-1.12,0.27-2.06,0.82-2.82
			c0.55-0.76,1.24-1.37,2.08-1.84c0.84-0.47,1.77-0.79,2.8-0.98s2.01-0.28,2.94-0.28c1.07,0,2.09,0.11,3.06,0.34
			c0.97,0.23,1.85,0.59,2.64,1.1c0.79,0.51,1.44,1.17,1.96,1.98c0.52,0.81,0.85,1.79,0.98,2.94h-4.76c-0.21-1.09-0.71-1.83-1.5-2.2
			c-0.79-0.37-1.69-0.56-2.7-0.56c-0.32,0-0.7,0.03-1.14,0.08c-0.44,0.05-0.85,0.15-1.24,0.3c-0.39,0.15-0.71,0.36-0.98,0.64
			s-0.4,0.65-0.4,1.1c0,0.56,0.19,1.01,0.58,1.36c0.39,0.35,0.89,0.63,1.52,0.86c0.63,0.23,1.34,0.42,2.14,0.58
			c0.8,0.16,1.63,0.33,2.48,0.52c0.83,0.19,1.64,0.41,2.44,0.68c0.8,0.27,1.51,0.63,2.14,1.08c0.63,0.45,1.13,1.03,1.52,1.72
			s0.58,1.55,0.58,2.56c0,1.23-0.28,2.27-0.84,3.12c-0.56,0.85-1.29,1.55-2.18,2.08c-0.89,0.53-1.89,0.92-2.98,1.16
			s-2.17,0.36-3.24,0.36c-1.31,0-2.51-0.15-3.62-0.44c-1.11-0.29-2.07-0.74-2.88-1.34c-0.81-0.6-1.45-1.35-1.92-2.24
			s-0.71-1.95-0.74-3.18H423.92z"/>
		<path class="st0" d="M438.16,40.4h3.44v-6.2h4.56v6.2h4.12v3.4h-4.12v11.04c0,0.48,0.02,0.89,0.06,1.24s0.13,0.64,0.28,0.88
			c0.15,0.24,0.37,0.42,0.66,0.54c0.29,0.12,0.69,0.18,1.2,0.18c0.32,0,0.64-0.01,0.96-0.02c0.32-0.01,0.64-0.06,0.96-0.14v3.52
			c-0.51,0.05-1,0.11-1.48,0.16c-0.48,0.05-0.97,0.08-1.48,0.08c-1.2,0-2.17-0.11-2.9-0.34c-0.73-0.23-1.31-0.56-1.72-1
			c-0.41-0.44-0.69-0.99-0.84-1.66c-0.15-0.67-0.23-1.43-0.26-2.28V43.8h-3.44V40.4z"/>
		<path class="st0" d="M452.56,40.4h4.28v4h0.08c0.13-0.56,0.39-1.11,0.78-1.64c0.39-0.53,0.85-1.02,1.4-1.46
			c0.55-0.44,1.15-0.79,1.82-1.06c0.67-0.27,1.35-0.4,2.04-0.4c0.53,0,0.9,0.01,1.1,0.04c0.2,0.03,0.41,0.05,0.62,0.08v4.4
			c-0.32-0.05-0.65-0.1-0.98-0.14c-0.33-0.04-0.66-0.06-0.98-0.06c-0.77,0-1.5,0.15-2.18,0.46s-1.27,0.76-1.78,1.36
			c-0.51,0.6-0.91,1.34-1.2,2.22c-0.29,0.88-0.44,1.89-0.44,3.04v9.84h-4.56V40.4z"/>
		<path class="st0" d="M465.76,32.52h4.56v4.32h-4.56V32.52z M465.76,40.4h4.56v20.68h-4.56V40.4z"/>
		<path class="st0" d="M491.6,56.48c0,0.56,0.07,0.96,0.22,1.2c0.15,0.24,0.43,0.36,0.86,0.36c0.13,0,0.29,0,0.48,0
			c0.19,0,0.4-0.03,0.64-0.08v3.16c-0.16,0.05-0.37,0.11-0.62,0.18c-0.25,0.07-0.51,0.13-0.78,0.18c-0.27,0.05-0.53,0.09-0.8,0.12
			s-0.49,0.04-0.68,0.04c-0.93,0-1.71-0.19-2.32-0.56s-1.01-1.03-1.2-1.96c-0.91,0.88-2.02,1.52-3.34,1.92
			c-1.32,0.4-2.59,0.6-3.82,0.6c-0.93,0-1.83-0.13-2.68-0.38c-0.85-0.25-1.61-0.63-2.26-1.12c-0.65-0.49-1.17-1.12-1.56-1.88
			c-0.39-0.76-0.58-1.65-0.58-2.66c0-1.28,0.23-2.32,0.7-3.12c0.47-0.8,1.08-1.43,1.84-1.88c0.76-0.45,1.61-0.78,2.56-0.98
			s1.9-0.35,2.86-0.46c0.83-0.16,1.61-0.27,2.36-0.34c0.75-0.07,1.41-0.18,1.98-0.34c0.57-0.16,1.03-0.41,1.36-0.74
			c0.33-0.33,0.5-0.83,0.5-1.5c0-0.59-0.14-1.07-0.42-1.44c-0.28-0.37-0.63-0.66-1.04-0.86c-0.41-0.2-0.87-0.33-1.38-0.4
			c-0.51-0.07-0.99-0.1-1.44-0.1c-1.28,0-2.33,0.27-3.16,0.8c-0.83,0.53-1.29,1.36-1.4,2.48h-4.56c0.08-1.33,0.4-2.44,0.96-3.32
			s1.27-1.59,2.14-2.12s1.85-0.91,2.94-1.12c1.09-0.21,2.21-0.32,3.36-0.32c1.01,0,2.01,0.11,3,0.32c0.99,0.21,1.87,0.56,2.66,1.04
			c0.79,0.48,1.42,1.1,1.9,1.86c0.48,0.76,0.72,1.69,0.72,2.78V56.48z M487.04,50.72c-0.69,0.45-1.55,0.73-2.56,0.82
			c-1.01,0.09-2.03,0.23-3.04,0.42c-0.48,0.08-0.95,0.19-1.4,0.34c-0.45,0.15-0.85,0.35-1.2,0.6s-0.62,0.59-0.82,1
			c-0.2,0.41-0.3,0.91-0.3,1.5c0,0.51,0.15,0.93,0.44,1.28c0.29,0.35,0.65,0.62,1.06,0.82c0.41,0.2,0.87,0.34,1.36,0.42
			c0.49,0.08,0.94,0.12,1.34,0.12c0.51,0,1.05-0.07,1.64-0.2c0.59-0.13,1.14-0.36,1.66-0.68c0.52-0.32,0.95-0.73,1.3-1.22
			s0.52-1.1,0.52-1.82V50.72z"/>
		<path class="st0" d="M524.12,54.44h-3.6v6.64h-4.32v-6.64h-12v-4.52l12-16.84h4.32v17.76h3.6V54.44z M507.72,50.84h8.48V38.52
			h-0.08L507.72,50.84z"/>
		<path class="st0" d="M527.24,55.68h5.56v5.4h-5.56V55.68z"/>
		<path class="st0" d="M545.72,32.52c2,0,3.63,0.46,4.9,1.38s2.25,2.09,2.96,3.52c0.71,1.43,1.19,2.99,1.44,4.7
			c0.25,1.71,0.38,3.36,0.38,4.96s-0.13,3.25-0.38,4.96c-0.25,1.71-0.73,3.27-1.44,4.7c-0.71,1.43-1.69,2.6-2.96,3.52
			s-2.9,1.38-4.9,1.38s-3.63-0.46-4.9-1.38s-2.25-2.09-2.96-3.52c-0.71-1.43-1.19-2.99-1.44-4.7c-0.25-1.71-0.38-3.36-0.38-4.96
			s0.13-3.25,0.38-4.96c0.25-1.71,0.73-3.27,1.44-4.7c0.71-1.43,1.69-2.6,2.96-3.52S543.72,32.52,545.72,32.52z M545.72,57.84
			c0.99,0,1.81-0.29,2.48-0.86c0.67-0.57,1.19-1.35,1.58-2.32s0.66-2.11,0.82-3.42s0.24-2.69,0.24-4.16c0-1.47-0.08-2.85-0.24-4.14
			c-0.16-1.29-0.43-2.43-0.82-3.42s-0.91-1.77-1.58-2.34c-0.67-0.57-1.49-0.86-2.48-0.86c-1.01,0-1.85,0.29-2.5,0.86
			c-0.65,0.57-1.17,1.35-1.56,2.34s-0.66,2.13-0.82,3.42c-0.16,1.29-0.24,2.67-0.24,4.14c0,1.47,0.08,2.85,0.24,4.16
			s0.43,2.45,0.82,3.42s0.91,1.75,1.56,2.32C543.87,57.55,544.7,57.84,545.72,57.84z"/>
	</g>
</g>
<g id="Servicios_Color">
</g>
<g id="Crea_COLOR">
</g>
</svg>
