<?xml version="1.0" encoding="utf-8"?>
<!-- Generator: Adobe Illustrator 24.2.1, SVG Export Plug-In . SVG Version: 6.00 Build 0)  -->
<svg version="1.1" xmlns="http://www.w3.org/2000/svg" xmlns:xlink="http://www.w3.org/1999/xlink" x="0px" y="0px"
	 viewBox="0 0 536.18 100.87" style="enable-background:new 0 0 536.18 100.87;" xml:space="preserve">
<style type="text/css">
	.st0{fill:#54565A;}
	.st1{fill:#FF9E18;}
	.st2{fill:none;stroke:#B72025;stroke-width:4;stroke-miterlimit:10;}
	.st3{fill:none;stroke:#607D8B;stroke-width:4;stroke-miterlimit:10;}
	.st4{fill:none;stroke:#0377BE;stroke-width:4;stroke-miterlimit:10;}
	.st5{fill:none;stroke:#ED6D23;stroke-width:4;stroke-miterlimit:10;}
</style>
<g id="Store_Color">
</g>
<g id="Industria_4.0_Color">
</g>
<g id="Servicios_Color">
	<g>
		<g>
			<path class="st0" d="M284.64,36.49c0,3.06-2.43,5.52-5.52,5.52c-3.06,0-5.52-2.46-5.52-5.52c0-3.06,2.46-5.48,5.55-5.48
				C282.22,31.01,284.64,33.44,284.64,36.49z M274.94,36.49c0,2.43,1.79,4.36,4.22,4.36c2.35,0.04,4.15-1.93,4.15-4.32
				c0-2.43-1.79-4.39-4.22-4.39C276.74,32.14,274.94,34.1,274.94,36.49z M278.25,39.34h-1.16v-5.48c0.46-0.07,1.12-0.18,1.97-0.18
				c0.98,0,1.44,0.18,1.83,0.46c0.32,0.21,0.56,0.63,0.56,1.16c0,0.63-0.53,1.09-1.16,1.3v0.07c0.56,0.18,0.81,0.6,0.98,1.34
				c0.18,0.81,0.28,1.16,0.42,1.34h-1.26c-0.18-0.21-0.28-0.67-0.42-1.34c-0.11-0.56-0.46-0.84-1.16-0.84h-0.6V39.34z M278.28,36.25
				h0.6c0.7,0,1.27-0.21,1.27-0.77c0-0.53-0.32-0.84-1.16-0.84c-0.32,0-0.56,0.03-0.7,0.07V36.25z"/>
		</g>
		<path class="st0" d="M227.73,53.1c-0.02-0.17-0.03-0.4-0.03-0.69c0-1.94,1.19-3.45,3.56-4.52c2-0.9,4.35-1.34,7.05-1.34h6.65
			c0-1.18-0.33-2.08-0.99-2.7c-1.01-0.96-2.89-1.44-5.63-1.44l-10.64-0.03v-4.04h10.63c3.12,0,5.61,0.66,7.47,1.98
			c2.04,1.45,3.06,3.52,3.06,6.2V47v0.92v0.43v0.56v0.72v0.95v1.28v1.68v2.2v2.89h-10.55c-3.18,0-5.64-0.45-7.4-1.34
			c-1.58-0.81-2.58-1.94-2.99-3.41C227.82,53.54,227.75,53.28,227.73,53.1 M238.38,50.46h-0.44h-0.61c-1.47,0-2.66,0.11-3.58,0.32
			c-1.4,0.32-2.1,0.87-2.1,1.65c0,0.89,0.76,1.51,2.27,1.88c0.96,0.24,2.17,0.36,3.62,0.36h0.46h0.43h6.61v-4.21H238.38z"/>
		<path class="st0" d="M271.51,58.65h-12.49c-3.18,0-5.46-0.93-6.84-2.79c-1.23-1.64-1.84-4.13-1.84-7.46
			c0-3.22,1.01-5.75,3.02-7.59c1.8-1.64,4.01-2.47,6.64-2.47h7.56v-6.77h3.94V58.65z M267.57,54.7V42.41l-7.69-0.07
			c-2.04,0-3.52,0.59-4.44,1.77c-0.77,0.99-1.15,2.41-1.15,4.27c0,1.97,0.34,3.47,1.02,4.5c0.79,1.21,2.03,1.81,3.71,1.81H267.57z"
			/>
		<path class="st0" d="M225.23,42.41h-10.55c-2.02,0-3.68,0.72-5,2.17c-1.12,1.23-1.68,2.5-1.68,3.81c0,1.49,0.51,2.85,1.54,4.08
			c1.25,1.49,2.96,2.24,5.13,2.24h10.55v3.94h-10.55c-3.05,0-5.59-1.13-7.63-3.39c-1.86-2.06-2.79-4.33-2.79-6.8
			c0-2.56,0.92-4.84,2.76-6.84c2.04-2.19,4.6-3.29,7.69-3.29h10.52V42.41z"/>
		<polygon class="st0" points="111.6,38.26 110.28,38.27 110.28,38.26 106.34,38.27 98.9,45.65 91.55,38.25 90.24,38.26 
			90.24,38.25 86.45,38.26 96.61,48.49 86.45,58.65 87.77,58.64 87.76,58.65 91.36,58.63 98.9,51.13 106.32,58.49 107.63,58.49 
			107.64,58.49 111.43,58.48 101.47,48.49 		"/>
		<path class="st0" d="M135.36,48.59c0,3.22-1.01,5.74-3.02,7.58c-1.8,1.64-4.01,2.46-6.64,2.46h-8.35v6.51h-3.94V38.25h13.87
			c2.54,0,4.53,0.94,5.95,2.81C134.65,42.93,135.36,45.44,135.36,48.59 M131.42,48.68c0-2.15-0.22-3.68-0.66-4.6
			c-0.59-1.25-1.71-1.87-3.35-1.87h-10.06v12.43h3.16h5.33c2.04,0,3.52-0.58,4.44-1.74C131.03,51.92,131.42,50.52,131.42,48.68"/>
		<path class="st0" d="M140.33,50.46c0.31,1.38,1.15,2.45,2.53,3.22c1.23,0.68,2.66,1.02,4.31,1.02h10.55v3.94h-10.55
			c-3.16,0-5.71-0.98-7.68-2.94c-1.96-1.96-2.94-4.37-2.94-7.22c0-2.78,1.05-5.17,3.16-7.17c2.1-1.99,4.59-2.99,7.46-2.99
			c3.2,0,5.83,1.19,7.89,3.57c1.77,2.05,2.66,4.27,2.66,6.66c0,0.66-0.11,1.29-0.33,1.9H140.33z M140.42,46.52h12.72
			c-0.37-0.92-0.74-1.6-1.12-2.04c-1.18-1.38-2.81-2.07-4.87-2.07c-2.08,0-3.82,0.68-5.23,2.04
			C141.48,44.88,140.97,45.57,140.42,46.52"/>
		<path class="st0" d="M168.17,39.32c2.02-0.37,4.79-0.66,8.32-0.85c1.64-0.09,3.12-0.13,4.44-0.13v3.94h-1.28h-1.94
			c-2.04,0-4.14,0.08-6.3,0.23c-2.16,0.15-3.89,0.41-5.21,0.79c-1.67,0.48-2.5,1.11-2.5,1.9v13.46h-3.94V38.33h3.94v3.29
			C163.7,40.65,165.19,39.89,168.17,39.32"/>
		<polygon class="st0" points="195.39,38.33 195.39,32.22 195.39,31.56 191.51,31.56 191.51,32.22 191.51,38.33 182.89,38.33 
			182.89,38.99 182.89,41.62 182.89,42.28 191.51,42.28 191.51,57.99 191.51,58.65 195.45,58.65 195.45,57.99 195.45,57.99 
			195.42,50.13 195.39,42.28 204.06,42.28 204.06,41.62 204.06,38.99 204.06,38.33 		"/>
		<path class="st1" d="M61.96,41.81c13.9-14.7,18.52-16.48,18.52-16.48s-0.86-3.38-4.44-3.53c-0.2-0.01-0.4,0.03-0.59,0.1
			c-1.83,0.7-12.02,4.79-21.05,12.89c-9.03-8.1-19.22-12.19-21.05-12.89c-0.19-0.07-0.39-0.11-0.59-0.1
			c-3.58,0.15-4.44,3.53-4.44,3.53s4.61,1.78,18.52,16.48c-14.16,13.41-18.76,20.3-18.76,20.3l0.03,7.49
			c0.47,3.38,3.07,4.51,4.65,4.73c0,0,0.01,0,0.01,0l1.85,0c6.71-13.72,19.76-27.58,19.79-27.6c0.03,0.03,13.08,13.89,19.79,27.6
			l1.85,0c0,0,0.01,0,0.01,0c1.58-0.22,4.19-1.35,4.65-4.73l0.03-7.49C80.73,62.12,76.12,55.22,61.96,41.81z"/>
	</g>
	<line class="st4" x1="315.39" y1="21.8" x2="315.39" y2="74.34"/>
	<g>
		<g>
			<path class="st0" d="M344.29,51.56c0,1.09,0.19,2.03,0.56,2.8c0.37,0.77,0.89,1.41,1.56,1.9c0.67,0.49,1.43,0.85,2.3,1.08
				c0.87,0.23,1.81,0.34,2.82,0.34c1.09,0,2.03-0.13,2.8-0.38c0.77-0.25,1.4-0.58,1.88-0.98c0.48-0.4,0.83-0.86,1.04-1.38
				c0.21-0.52,0.32-1.05,0.32-1.58c0-1.09-0.25-1.9-0.74-2.42c-0.49-0.52-1.03-0.89-1.62-1.1c-1.01-0.37-2.19-0.73-3.54-1.06
				c-1.35-0.33-3.01-0.77-4.98-1.3c-1.23-0.32-2.25-0.74-3.06-1.26c-0.81-0.52-1.46-1.1-1.94-1.74c-0.48-0.64-0.82-1.32-1.02-2.04
				c-0.2-0.72-0.3-1.45-0.3-2.2c0-1.44,0.3-2.69,0.9-3.74c0.6-1.05,1.39-1.93,2.38-2.62c0.99-0.69,2.11-1.21,3.36-1.54
				c1.25-0.33,2.52-0.5,3.8-0.5c1.49,0,2.9,0.19,4.22,0.58c1.32,0.39,2.48,0.97,3.48,1.74s1.79,1.73,2.38,2.86
				c0.59,1.13,0.88,2.45,0.88,3.94h-5c-0.13-1.84-0.76-3.14-1.88-3.9c-1.12-0.76-2.55-1.14-4.28-1.14c-0.59,0-1.19,0.06-1.8,0.18
				c-0.61,0.12-1.17,0.32-1.68,0.6c-0.51,0.28-0.93,0.66-1.26,1.14c-0.33,0.48-0.5,1.08-0.5,1.8c0,1.01,0.31,1.81,0.94,2.38
				c0.63,0.57,1.45,1.01,2.46,1.3c0.11,0.03,0.53,0.14,1.26,0.34s1.55,0.42,2.46,0.66s1.79,0.47,2.66,0.7s1.49,0.39,1.86,0.5
				c0.93,0.29,1.75,0.69,2.44,1.2c0.69,0.51,1.27,1.09,1.74,1.74c0.47,0.65,0.81,1.35,1.04,2.1c0.23,0.75,0.34,1.49,0.34,2.24
				c0,1.6-0.33,2.97-0.98,4.1c-0.65,1.13-1.51,2.06-2.58,2.78c-1.07,0.72-2.28,1.25-3.64,1.58c-1.36,0.33-2.75,0.5-4.16,0.5
				c-1.63,0-3.16-0.2-4.6-0.6c-1.44-0.4-2.69-1.01-3.76-1.84s-1.92-1.89-2.56-3.18c-0.64-1.29-0.97-2.82-1-4.58H344.29z"/>
			<path class="st0" d="M368.85,51.92c0,0.8,0.11,1.57,0.34,2.32c0.23,0.75,0.57,1.4,1.02,1.96c0.45,0.56,1.03,1.01,1.72,1.34
				c0.69,0.33,1.52,0.5,2.48,0.5c1.33,0,2.41-0.29,3.22-0.86c0.81-0.57,1.42-1.43,1.82-2.58h4.32c-0.24,1.12-0.65,2.12-1.24,3
				c-0.59,0.88-1.29,1.62-2.12,2.22c-0.83,0.6-1.75,1.05-2.78,1.36c-1.03,0.31-2.1,0.46-3.22,0.46c-1.63,0-3.07-0.27-4.32-0.8
				c-1.25-0.53-2.31-1.28-3.18-2.24c-0.87-0.96-1.52-2.11-1.96-3.44c-0.44-1.33-0.66-2.8-0.66-4.4c0-1.47,0.23-2.86,0.7-4.18
				s1.13-2.48,2-3.48s1.91-1.79,3.14-2.38c1.23-0.59,2.61-0.88,4.16-0.88c1.63,0,3.09,0.34,4.38,1.02c1.29,0.68,2.37,1.58,3.22,2.7
				c0.85,1.12,1.47,2.41,1.86,3.86c0.39,1.45,0.49,2.95,0.3,4.5H368.85z M379.49,48.92c-0.05-0.72-0.21-1.41-0.46-2.08
				c-0.25-0.67-0.6-1.25-1.04-1.74c-0.44-0.49-0.97-0.89-1.6-1.2c-0.63-0.31-1.33-0.46-2.1-0.46c-0.8,0-1.53,0.14-2.18,0.42
				c-0.65,0.28-1.21,0.67-1.68,1.16c-0.47,0.49-0.84,1.07-1.12,1.74c-0.28,0.67-0.43,1.39-0.46,2.16H379.49z"/>
			<path class="st0" d="M386.53,40.4h4.28v4h0.08c0.13-0.56,0.39-1.11,0.78-1.64c0.39-0.53,0.85-1.02,1.4-1.46
				c0.55-0.44,1.15-0.79,1.82-1.06c0.67-0.27,1.35-0.4,2.04-0.4c0.53,0,0.9,0.01,1.1,0.04c0.2,0.03,0.41,0.05,0.62,0.08v4.4
				c-0.32-0.05-0.65-0.1-0.98-0.14c-0.33-0.04-0.66-0.06-0.98-0.06c-0.77,0-1.5,0.15-2.18,0.46s-1.27,0.76-1.78,1.36
				c-0.51,0.6-0.91,1.34-1.2,2.22c-0.29,0.88-0.44,1.89-0.44,3.04v9.84h-4.56V40.4z"/>
			<path class="st0" d="M397.57,40.4h4.96l5.24,15.88h0.08l5.04-15.88h4.72l-7.4,20.68h-5.12L397.57,40.4z"/>
			<path class="st0" d="M419.49,32.52h4.56v4.32h-4.56V32.52z M419.49,40.4h4.56v20.68h-4.56V40.4z"/>
			<path class="st0" d="M441.97,47.32c-0.19-1.28-0.7-2.25-1.54-2.9c-0.84-0.65-1.9-0.98-3.18-0.98c-0.59,0-1.21,0.1-1.88,0.3
				c-0.67,0.2-1.28,0.57-1.84,1.12c-0.56,0.55-1.03,1.31-1.4,2.28c-0.37,0.97-0.56,2.25-0.56,3.82c0,0.85,0.1,1.71,0.3,2.56
				s0.52,1.61,0.96,2.28c0.44,0.67,1.01,1.21,1.7,1.62c0.69,0.41,1.53,0.62,2.52,0.62c1.33,0,2.43-0.41,3.3-1.24
				c0.87-0.83,1.41-1.99,1.62-3.48h4.56c-0.43,2.69-1.45,4.75-3.06,6.18c-1.61,1.43-3.75,2.14-6.42,2.14c-1.63,0-3.06-0.27-4.3-0.82
				c-1.24-0.55-2.29-1.29-3.14-2.24c-0.85-0.95-1.5-2.07-1.94-3.38c-0.44-1.31-0.66-2.72-0.66-4.24c0-1.55,0.21-3,0.64-4.36
				c0.43-1.36,1.07-2.54,1.92-3.54s1.91-1.79,3.18-2.36s2.75-0.86,4.46-0.86c1.2,0,2.34,0.15,3.42,0.46
				c1.08,0.31,2.04,0.77,2.88,1.38c0.84,0.61,1.53,1.39,2.06,2.32c0.53,0.93,0.85,2.04,0.96,3.32H441.97z"/>
			<path class="st0" d="M449.37,32.52h4.56v4.32h-4.56V32.52z M449.37,40.4h4.56v20.68h-4.56V40.4z"/>
			<path class="st0" d="M467.37,61.64c-1.65,0-3.13-0.27-4.42-0.82c-1.29-0.55-2.39-1.3-3.28-2.26c-0.89-0.96-1.57-2.11-2.04-3.44
				c-0.47-1.33-0.7-2.8-0.7-4.4c0-1.57,0.23-3.03,0.7-4.36s1.15-2.48,2.04-3.44s1.99-1.71,3.28-2.26c1.29-0.55,2.77-0.82,4.42-0.82
				s3.13,0.27,4.42,0.82c1.29,0.55,2.39,1.3,3.28,2.26c0.89,0.96,1.57,2.11,2.04,3.44c0.47,1.33,0.7,2.79,0.7,4.36
				c0,1.6-0.23,3.07-0.7,4.4c-0.47,1.33-1.15,2.48-2.04,3.44c-0.89,0.96-1.99,1.71-3.28,2.26C470.5,61.36,469.02,61.64,467.37,61.64
				z M467.37,58.04c1.01,0,1.89-0.21,2.64-0.64c0.75-0.43,1.36-0.99,1.84-1.68c0.48-0.69,0.83-1.47,1.06-2.34
				c0.23-0.87,0.34-1.75,0.34-2.66c0-0.88-0.11-1.76-0.34-2.64s-0.58-1.66-1.06-2.34c-0.48-0.68-1.09-1.23-1.84-1.66
				c-0.75-0.43-1.63-0.64-2.64-0.64s-1.89,0.21-2.64,0.64c-0.75,0.43-1.36,0.98-1.84,1.66c-0.48,0.68-0.83,1.46-1.06,2.34
				s-0.34,1.76-0.34,2.64c0,0.91,0.11,1.79,0.34,2.66c0.23,0.87,0.58,1.65,1.06,2.34c0.48,0.69,1.09,1.25,1.84,1.68
				C465.48,57.83,466.36,58.04,467.37,58.04z"/>
			<path class="st0" d="M484.05,54.44c0.13,1.33,0.64,2.27,1.52,2.8s1.93,0.8,3.16,0.8c0.43,0,0.91-0.03,1.46-0.1
				c0.55-0.07,1.06-0.19,1.54-0.38c0.48-0.19,0.87-0.46,1.18-0.82c0.31-0.36,0.45-0.83,0.42-1.42c-0.03-0.59-0.24-1.07-0.64-1.44
				c-0.4-0.37-0.91-0.67-1.54-0.9c-0.63-0.23-1.34-0.42-2.14-0.58s-1.61-0.33-2.44-0.52c-0.85-0.19-1.67-0.41-2.46-0.68
				c-0.79-0.27-1.49-0.63-2.12-1.08c-0.63-0.45-1.13-1.03-1.5-1.74c-0.37-0.71-0.56-1.58-0.56-2.62c0-1.12,0.27-2.06,0.82-2.82
				c0.55-0.76,1.24-1.37,2.08-1.84c0.84-0.47,1.77-0.79,2.8-0.98s2.01-0.28,2.94-0.28c1.07,0,2.09,0.11,3.06,0.34
				c0.97,0.23,1.85,0.59,2.64,1.1c0.79,0.51,1.44,1.17,1.96,1.98c0.52,0.81,0.85,1.79,0.98,2.94h-4.76c-0.21-1.09-0.71-1.83-1.5-2.2
				c-0.79-0.37-1.69-0.56-2.7-0.56c-0.32,0-0.7,0.03-1.14,0.08c-0.44,0.05-0.85,0.15-1.24,0.3c-0.39,0.15-0.71,0.36-0.98,0.64
				s-0.4,0.65-0.4,1.1c0,0.56,0.19,1.01,0.58,1.36c0.39,0.35,0.89,0.63,1.52,0.86c0.63,0.23,1.34,0.42,2.14,0.58
				c0.8,0.16,1.63,0.33,2.48,0.52c0.83,0.19,1.64,0.41,2.44,0.68c0.8,0.27,1.51,0.63,2.14,1.08c0.63,0.45,1.13,1.03,1.52,1.72
				s0.58,1.55,0.58,2.56c0,1.23-0.28,2.27-0.84,3.12c-0.56,0.85-1.29,1.55-2.18,2.08c-0.89,0.53-1.89,0.92-2.98,1.16
				s-2.17,0.36-3.24,0.36c-1.31,0-2.51-0.15-3.62-0.44c-1.11-0.29-2.07-0.74-2.88-1.34c-0.81-0.6-1.45-1.35-1.92-2.24
				s-0.71-1.95-0.74-3.18H484.05z"/>
		</g>
	</g>
</g>
<g id="Crea_COLOR">
</g>
</svg>
