<?xml version="1.0" encoding="utf-8"?>
<!-- Generator: Adobe Illustrator 24.2.1, SVG Export Plug-In . SVG Version: 6.00 Build 0)  -->
<svg version="1.1" xmlns="http://www.w3.org/2000/svg" xmlns:xlink="http://www.w3.org/1999/xlink" x="0px" y="0px"
	 viewBox="0 0 469.82 100.87" style="enable-background:new 0 0 469.82 100.87;" xml:space="preserve">
<style type="text/css">
	.st0{fill:#54565A;}
	.st1{fill:#FF9E18;}
	.st2{fill:none;stroke:#B72025;stroke-width:4;stroke-miterlimit:10;}
	.st3{fill:none;stroke:#607D8B;stroke-width:4;stroke-miterlimit:10;}
	.st4{fill:none;stroke:#0377BE;stroke-width:4;stroke-miterlimit:10;}
	.st5{fill:none;stroke:#ED6D23;stroke-width:4;stroke-miterlimit:10;}
</style>
<g id="Store_Color">
</g>
<g id="Industria_4.0_Color">
</g>
<g id="Servicios_Color">
</g>
<g id="Crea_COLOR">
	<g>
		<g>
			<path class="st0" d="M280.69,36.49c0,3.06-2.43,5.52-5.52,5.52c-3.06,0-5.52-2.46-5.52-5.52c0-3.06,2.46-5.48,5.55-5.48
				C278.26,31.01,280.69,33.44,280.69,36.49z M270.99,36.49c0,2.43,1.79,4.36,4.22,4.36c2.35,0.04,4.15-1.93,4.15-4.32
				c0-2.43-1.79-4.39-4.22-4.39C272.78,32.14,270.99,34.1,270.99,36.49z M274.29,39.34h-1.16v-5.48c0.46-0.07,1.12-0.18,1.97-0.18
				c0.98,0,1.44,0.18,1.83,0.46c0.32,0.21,0.56,0.63,0.56,1.16c0,0.63-0.53,1.09-1.16,1.3v0.07c0.56,0.18,0.81,0.6,0.98,1.34
				c0.18,0.81,0.28,1.16,0.42,1.34h-1.26c-0.18-0.21-0.28-0.67-0.42-1.34c-0.11-0.56-0.46-0.84-1.16-0.84h-0.6V39.34z M274.33,36.25
				h0.6c0.7,0,1.27-0.21,1.27-0.77c0-0.53-0.32-0.84-1.16-0.84c-0.32,0-0.56,0.03-0.7,0.07V36.25z"/>
		</g>
		<path class="st0" d="M223.77,53.1c-0.02-0.17-0.03-0.4-0.03-0.69c0-1.94,1.19-3.45,3.56-4.52c2-0.9,4.35-1.34,7.05-1.34H241
			c0-1.18-0.33-2.08-0.99-2.7c-1.01-0.96-2.89-1.44-5.63-1.44l-10.64-0.03v-4.04h10.63c3.12,0,5.61,0.66,7.47,1.98
			c2.04,1.45,3.06,3.52,3.06,6.2V47v0.92v0.43v0.56v0.72v0.95v1.28v1.68v2.2v2.89h-10.55c-3.18,0-5.64-0.45-7.4-1.34
			c-1.58-0.81-2.58-1.94-2.99-3.41C223.86,53.54,223.8,53.28,223.77,53.1 M234.43,50.46h-0.44h-0.61c-1.47,0-2.66,0.11-3.58,0.32
			c-1.4,0.32-2.1,0.87-2.1,1.65c0,0.89,0.76,1.51,2.27,1.88c0.96,0.24,2.17,0.36,3.62,0.36h0.46h0.43h6.61v-4.21H234.43z"/>
		<path class="st0" d="M267.56,58.65h-12.49c-3.18,0-5.46-0.93-6.84-2.79c-1.23-1.64-1.84-4.13-1.84-7.46
			c0-3.22,1.01-5.75,3.02-7.59c1.8-1.64,4.01-2.47,6.64-2.47h7.56v-6.77h3.94V58.65z M263.61,54.7V42.41l-7.69-0.07
			c-2.04,0-3.52,0.59-4.44,1.77c-0.77,0.99-1.15,2.41-1.15,4.27c0,1.97,0.34,3.47,1.02,4.5c0.79,1.21,2.03,1.81,3.71,1.81H263.61z"
			/>
		<path class="st0" d="M221.28,42.41h-10.55c-2.02,0-3.68,0.72-5,2.17c-1.12,1.23-1.68,2.5-1.68,3.81c0,1.49,0.51,2.85,1.54,4.08
			c1.25,1.49,2.96,2.24,5.13,2.24h10.55v3.94h-10.55c-3.05,0-5.59-1.13-7.63-3.39c-1.86-2.06-2.79-4.33-2.79-6.8
			c0-2.56,0.92-4.84,2.76-6.84c2.04-2.19,4.6-3.29,7.69-3.29h10.52V42.41z"/>
		<polygon class="st0" points="107.64,38.26 106.32,38.27 106.33,38.26 102.39,38.27 94.95,45.65 87.6,38.25 86.29,38.26 
			86.28,38.25 82.49,38.26 92.65,48.49 82.49,58.65 83.82,58.64 83.81,58.65 87.41,58.63 94.95,51.13 102.37,58.49 103.68,58.49 
			103.68,58.49 107.48,58.48 97.52,48.49 		"/>
		<path class="st0" d="M131.41,48.59c0,3.22-1.01,5.74-3.02,7.58c-1.8,1.64-4.01,2.46-6.64,2.46h-8.35v6.51h-3.94V38.25h13.87
			c2.54,0,4.53,0.94,5.95,2.81C130.7,42.93,131.41,45.44,131.41,48.59 M127.46,48.68c0-2.15-0.22-3.68-0.66-4.6
			c-0.59-1.25-1.71-1.87-3.35-1.87H113.4v12.43h3.16h5.33c2.04,0,3.52-0.58,4.44-1.74C127.08,51.92,127.46,50.52,127.46,48.68"/>
		<path class="st0" d="M136.37,50.46c0.31,1.38,1.15,2.45,2.53,3.22c1.23,0.68,2.66,1.02,4.31,1.02h10.55v3.94h-10.55
			c-3.16,0-5.71-0.98-7.68-2.94c-1.96-1.96-2.94-4.37-2.94-7.22c0-2.78,1.05-5.17,3.16-7.17c2.1-1.99,4.59-2.99,7.46-2.99
			c3.2,0,5.83,1.19,7.89,3.57c1.77,2.05,2.66,4.27,2.66,6.66c0,0.66-0.11,1.29-0.33,1.9H136.37z M136.47,46.52h12.72
			c-0.37-0.92-0.74-1.6-1.12-2.04c-1.18-1.38-2.81-2.07-4.87-2.07c-2.08,0-3.82,0.68-5.23,2.04
			C137.52,44.88,137.02,45.57,136.47,46.52"/>
		<path class="st0" d="M164.21,39.32c2.02-0.37,4.79-0.66,8.32-0.85c1.64-0.09,3.12-0.13,4.44-0.13v3.94h-1.28h-1.94
			c-2.04,0-4.14,0.08-6.3,0.23c-2.16,0.15-3.89,0.41-5.21,0.79c-1.67,0.48-2.5,1.11-2.5,1.9v13.46h-3.94V38.33h3.94v3.29
			C159.74,40.65,161.23,39.89,164.21,39.32"/>
		<polygon class="st0" points="191.43,38.33 191.43,32.22 191.43,31.56 187.55,31.56 187.55,32.22 187.55,38.33 178.94,38.33 
			178.94,38.99 178.94,41.62 178.94,42.28 187.55,42.28 187.55,57.99 187.55,58.65 191.5,58.65 191.49,57.99 191.5,57.99 
			191.46,50.13 191.43,42.28 200.11,42.28 200.11,41.62 200.11,38.99 200.11,38.33 		"/>
		<path class="st1" d="M58.01,41.81c13.9-14.7,18.52-16.48,18.52-16.48s-0.86-3.38-4.44-3.53c-0.2-0.01-0.4,0.03-0.59,0.1
			c-1.83,0.7-12.02,4.79-21.05,12.89c-9.03-8.1-19.22-12.19-21.05-12.89c-0.19-0.07-0.39-0.11-0.59-0.1
			c-3.58,0.15-4.44,3.53-4.44,3.53s4.61,1.78,18.52,16.48C28.71,55.22,24.1,62.12,24.1,62.12l0.03,7.49
			c0.47,3.38,3.07,4.51,4.65,4.73c0,0,0.01,0,0.01,0l1.85,0c6.71-13.72,19.76-27.58,19.79-27.6c0.03,0.03,13.08,13.89,19.79,27.6
			l1.85,0c0,0,0.01,0,0.01,0c1.58-0.22,4.19-1.35,4.65-4.73l0.03-7.49C76.77,62.12,72.16,55.22,58.01,41.81z"/>
	</g>
	<line class="st5" x1="311.44" y1="21.8" x2="311.44" y2="74.34"/>
	<g>
		<g>
			<path class="st0" d="M356.34,41.6c-0.21-0.83-0.51-1.59-0.88-2.28c-0.37-0.69-0.85-1.29-1.44-1.8c-0.59-0.51-1.27-0.9-2.06-1.18
				c-0.79-0.28-1.7-0.42-2.74-0.42c-1.52,0-2.83,0.31-3.94,0.92c-1.11,0.61-2.01,1.43-2.7,2.46c-0.69,1.03-1.21,2.19-1.54,3.5
				c-0.33,1.31-0.5,2.64-0.5,4c0,1.36,0.17,2.69,0.5,4c0.33,1.31,0.85,2.47,1.54,3.5c0.69,1.03,1.59,1.85,2.7,2.46
				c1.11,0.61,2.42,0.92,3.94,0.92c1.12,0,2.11-0.19,2.96-0.58c0.85-0.39,1.59-0.92,2.2-1.6c0.61-0.68,1.09-1.47,1.44-2.38
				c0.35-0.91,0.57-1.88,0.68-2.92h4.88c-0.11,1.71-0.47,3.27-1.1,4.68c-0.63,1.41-1.47,2.63-2.54,3.66
				c-1.07,1.03-2.32,1.82-3.76,2.38c-1.44,0.56-3.03,0.84-4.76,0.84c-2.13,0-4.05-0.39-5.74-1.18s-3.13-1.86-4.3-3.22
				c-1.17-1.36-2.07-2.95-2.7-4.76c-0.63-1.81-0.94-3.75-0.94-5.8c0-2.03,0.31-3.95,0.94-5.76c0.63-1.81,1.53-3.4,2.7-4.76
				c1.17-1.36,2.61-2.44,4.3-3.24s3.61-1.2,5.74-1.2c1.6,0,3.11,0.22,4.52,0.66c1.41,0.44,2.66,1.08,3.74,1.92s1.95,1.86,2.62,3.06
				c0.67,1.2,1.08,2.57,1.24,4.12H356.34z"/>
			<path class="st0" d="M364.3,40.4h4.28v4h0.08c0.13-0.56,0.39-1.11,0.78-1.64c0.39-0.53,0.85-1.02,1.4-1.46
				c0.55-0.44,1.15-0.79,1.82-1.06c0.67-0.27,1.35-0.4,2.04-0.4c0.53,0,0.9,0.01,1.1,0.04c0.2,0.03,0.41,0.05,0.62,0.08v4.4
				c-0.32-0.05-0.65-0.1-0.98-0.14c-0.33-0.04-0.66-0.06-0.98-0.06c-0.77,0-1.5,0.15-2.18,0.46s-1.27,0.76-1.78,1.36
				c-0.51,0.6-0.91,1.34-1.2,2.22c-0.29,0.88-0.44,1.89-0.44,3.04v9.84h-4.56V40.4z"/>
			<path class="st0" d="M380.22,51.92c0,0.8,0.11,1.57,0.34,2.32c0.23,0.75,0.57,1.4,1.02,1.96c0.45,0.56,1.03,1.01,1.72,1.34
				c0.69,0.33,1.52,0.5,2.48,0.5c1.33,0,2.41-0.29,3.22-0.86c0.81-0.57,1.42-1.43,1.82-2.58h4.32c-0.24,1.12-0.65,2.12-1.24,3
				c-0.59,0.88-1.29,1.62-2.12,2.22c-0.83,0.6-1.75,1.05-2.78,1.36c-1.03,0.31-2.1,0.46-3.22,0.46c-1.63,0-3.07-0.27-4.32-0.8
				c-1.25-0.53-2.31-1.28-3.18-2.24c-0.87-0.96-1.52-2.11-1.96-3.44c-0.44-1.33-0.66-2.8-0.66-4.4c0-1.47,0.23-2.86,0.7-4.18
				s1.13-2.48,2-3.48s1.91-1.79,3.14-2.38c1.23-0.59,2.61-0.88,4.16-0.88c1.63,0,3.09,0.34,4.38,1.02c1.29,0.68,2.37,1.58,3.22,2.7
				c0.85,1.12,1.47,2.41,1.86,3.86c0.39,1.45,0.49,2.95,0.3,4.5H380.22z M390.86,48.92c-0.05-0.72-0.21-1.41-0.46-2.08
				c-0.25-0.67-0.6-1.25-1.04-1.74c-0.44-0.49-0.97-0.89-1.6-1.2c-0.63-0.31-1.33-0.46-2.1-0.46c-0.8,0-1.53,0.14-2.18,0.42
				c-0.65,0.28-1.21,0.67-1.68,1.16c-0.47,0.49-0.84,1.07-1.12,1.74c-0.28,0.67-0.43,1.39-0.46,2.16H390.86z"/>
			<path class="st0" d="M415.22,56.48c0,0.56,0.07,0.96,0.22,1.2c0.15,0.24,0.43,0.36,0.86,0.36c0.13,0,0.29,0,0.48,0
				c0.19,0,0.4-0.03,0.64-0.08v3.16c-0.16,0.05-0.37,0.11-0.62,0.18c-0.25,0.07-0.51,0.13-0.78,0.18c-0.27,0.05-0.53,0.09-0.8,0.12
				s-0.49,0.04-0.68,0.04c-0.93,0-1.71-0.19-2.32-0.56s-1.01-1.03-1.2-1.96c-0.91,0.88-2.02,1.52-3.34,1.92
				c-1.32,0.4-2.59,0.6-3.82,0.6c-0.93,0-1.83-0.13-2.68-0.38c-0.85-0.25-1.61-0.63-2.26-1.12c-0.65-0.49-1.17-1.12-1.56-1.88
				c-0.39-0.76-0.58-1.65-0.58-2.66c0-1.28,0.23-2.32,0.7-3.12c0.47-0.8,1.08-1.43,1.84-1.88c0.76-0.45,1.61-0.78,2.56-0.98
				s1.9-0.35,2.86-0.46c0.83-0.16,1.61-0.27,2.36-0.34c0.75-0.07,1.41-0.18,1.98-0.34c0.57-0.16,1.03-0.41,1.36-0.74
				c0.33-0.33,0.5-0.83,0.5-1.5c0-0.59-0.14-1.07-0.42-1.44c-0.28-0.37-0.63-0.66-1.04-0.86c-0.41-0.2-0.87-0.33-1.38-0.4
				c-0.51-0.07-0.99-0.1-1.44-0.1c-1.28,0-2.33,0.27-3.16,0.8c-0.83,0.53-1.29,1.36-1.4,2.48h-4.56c0.08-1.33,0.4-2.44,0.96-3.32
				s1.27-1.59,2.14-2.12s1.85-0.91,2.94-1.12c1.09-0.21,2.21-0.32,3.36-0.32c1.01,0,2.01,0.11,3,0.32c0.99,0.21,1.87,0.56,2.66,1.04
				c0.79,0.48,1.42,1.1,1.9,1.86c0.48,0.76,0.72,1.69,0.72,2.78V56.48z M410.66,50.72c-0.69,0.45-1.55,0.73-2.56,0.82
				c-1.01,0.09-2.03,0.23-3.04,0.42c-0.48,0.08-0.95,0.19-1.4,0.34c-0.45,0.15-0.85,0.35-1.2,0.6s-0.62,0.59-0.82,1
				c-0.2,0.41-0.3,0.91-0.3,1.5c0,0.51,0.15,0.93,0.44,1.28c0.29,0.35,0.65,0.62,1.06,0.82c0.41,0.2,0.87,0.34,1.36,0.42
				c0.49,0.08,0.94,0.12,1.34,0.12c0.51,0,1.05-0.07,1.64-0.2c0.59-0.13,1.14-0.36,1.66-0.68c0.52-0.32,0.95-0.73,1.3-1.22
				s0.52-1.1,0.52-1.82V50.72z"/>
		</g>
	</g>
</g>
</svg>
